<svg width="16" height="17" viewBox="0 0 16 17" fill="none" xmlns="http://www.w3.org/2000/svg">
<g clip-path="url(#clip0_64_235)">
<path d="M8 0.5C3.5888 0.5 0 4.0888 0 8.5C0 12.9112 3.5888 16.5 8 16.5C12.4112 16.5 16 12.9112 16 8.5C16 4.0888 12.4112 0.5 8 0.5ZM8 14.3182C4.79185 14.3182 2.18182 11.7081 2.18182 8.5C2.18182 5.29185 4.79185 2.68182 8 2.68182C11.2081 2.68182 13.8182 5.29185 13.8182 8.5C13.8182 11.7081 11.2081 14.3182 8 14.3182ZM10.1613 9.82829L11.3408 10.9239L10.7465 11.4441C10.002 12.0954 9.05105 12.4543 8.06887 12.4543C5.86204 12.4543 4.06662 10.6959 4.06662 8.53462C4.06662 6.37833 5.86204 4.624 8.06887 4.624C9.05185 4.624 9.99964 4.97949 10.7374 5.62502L11.31 6.12611L10.1796 7.25709L9.67774 6.81367C9.24596 6.43236 8.67469 6.22233 8.06887 6.22233C6.74335 6.22233 5.66495 7.25964 5.66495 8.53454C5.66495 9.81454 6.74335 10.8559 8.06887 10.8559C8.668 10.8559 9.23935 10.6425 9.67774 10.2553L10.1613 9.82829Z" fill="white"/>
</g>
<defs>
<clipPath id="clip0_64_235">
<rect width="16" height="16" fill="white" transform="translate(0 0.5)"/>
</clipPath>
</defs>
</svg>
